<?xml version="1.0" encoding="UTF-8"?>
<!DOCTYPE svg PUBLIC "-//W3C//DTD SVG 1.1//EN" "http://www.w3.org/Graphics/SVG/1.1/DTD/svg11.dtd">
<svg xmlns="http://www.w3.org/2000/svg" version="1.1" width="2557px" height="2557px" style="shape-rendering:geometricPrecision; text-rendering:geometricPrecision; image-rendering:optimizeQuality; fill-rule:evenodd; clip-rule:evenodd" xmlns:xlink="http://www.w3.org/1999/xlink">
<g><path style="opacity:0.998" fill="#4da2ff" d="M 1270.5,-0.5 C 1275.17,-0.5 1279.83,-0.5 1284.5,-0.5C 1289.69,0.962697 1294.69,3.12936 1299.5,6C 1304.37,10.5323 1308.87,15.3656 1313,20.5C 1558.43,321.017 1804.09,621.35 2050,921.5C 2234.95,1153.81 2306.95,1417.81 2266,1713.5C 2221.61,1971.24 2098.11,2181.41 1895.5,2344C 1726.82,2474.44 1535.49,2545.28 1321.5,2556.5C 1292.17,2556.5 1262.83,2556.5 1233.5,2556.5C 981.375,2541.89 764.042,2448.39 581.5,2276C 409.215,2106.24 309.382,1900.41 282,1658.5C 258.488,1384.78 331.488,1140.78 501,926.5C 751.833,620.333 1002.67,314.167 1253.5,8C 1258.71,4.06067 1264.38,1.22734 1270.5,-0.5 Z M 1267.5,360.5 C 1286.65,358.001 1302.48,364.001 1315,378.5C 1504.33,609.833 1693.67,841.167 1883,1072.5C 2008.26,1237.82 2060.26,1424.16 2039,1631.5C 2019.91,1783.27 1961.91,1917.6 1865,2034.5C 1848.4,1933.69 1812.74,1840.36 1758,1754.5C 1714.95,1688.75 1664.45,1628.92 1606.5,1575C 1546.77,1520.25 1482.77,1471.25 1414.5,1428C 1378,1405.24 1341,1383.24 1303.5,1362C 1235.62,1321.16 1174.46,1271.66 1120,1213.5C 1012.71,1093.37 974.373,953.708 1005,794.5C 1024.61,688.646 1066.95,593.312 1132,508.5C 1168.67,463.833 1205.33,419.167 1242,374.5C 1249.34,367.584 1257.84,362.918 1267.5,360.5 Z M 744.5,983.5 C 764.978,1129.77 823.812,1258.1 921,1368.5C 989.298,1444.18 1066.46,1508.68 1152.5,1562C 1193.83,1586.67 1235.17,1611.33 1276.5,1636C 1348.05,1680.84 1413.22,1734.01 1472,1795.5C 1513.42,1839.95 1547.42,1889.62 1574,1944.5C 1614.15,2035.55 1627.98,2130.38 1615.5,2229C 1444.98,2310.11 1267.98,2328.11 1084.5,2283C 902.723,2233.26 757.223,2132.09 648,1979.5C 531.093,1806.83 489.093,1617.16 522,1410.5C 544.515,1286.51 593.848,1174.85 670,1075.5C 695.081,1044.99 719.915,1014.32 744.5,983.5 Z"/></g>
</svg>
