<?xml version="1.0" encoding="UTF-8"?>
<!DOCTYPE svg PUBLIC "-//W3C//DTD SVG 1.1//EN" "http://www.w3.org/Graphics/SVG/1.1/DTD/svg11.dtd">
<svg xmlns="http://www.w3.org/2000/svg" version="1.1" width="1188px" height="160px" style="shape-rendering:geometricPrecision; text-rendering:geometricPrecision; image-rendering:optimizeQuality; fill-rule:evenodd; clip-rule:evenodd" xmlns:xlink="http://www.w3.org/1999/xlink">
<g><path style="opacity:0.016" fill="#70b7f4" d="M 105.5,27.5 C 112.312,35.1274 118.646,43.1274 124.5,51.5C 123.448,51.6495 122.448,51.4828 121.5,51C 117.574,44.2384 112.408,37.7384 106,31.5C 104.666,30.1221 104.499,28.7887 105.5,27.5 Z"/></g>
<g><path style="opacity:0.96" fill="#fdfdfd" d="M 215.5,38.5 C 226.774,38.0674 237.107,40.9008 246.5,47C 247.687,48.0195 248.687,49.1861 249.5,50.5C 246.514,54.817 243.18,58.817 239.5,62.5C 231.002,55.1257 221.336,52.959 210.5,56C 202.847,60.7822 202.514,66.1155 209.5,72C 217.43,74.2529 225.43,76.2529 233.5,78C 249.098,83.3544 255.265,94.1877 252,110.5C 247.024,124.758 236.857,131.758 221.5,131.5C 210.664,131.459 200.664,128.626 191.5,123C 188.119,120.62 185.453,117.62 183.5,114C 187.24,109.965 191.074,106.131 195,102.5C 200.676,109.093 207.843,113.259 216.5,115C 226.083,116.886 232.083,113.22 234.5,104C 233.885,101.485 232.885,99.152 231.5,97C 220.512,93.3342 209.512,89.6676 198.5,86C 187.892,78.7527 184.392,68.9193 188,56.5C 190.109,49.4563 194.609,44.6229 201.5,42C 206.224,40.5058 210.891,39.3391 215.5,38.5 Z"/></g>
<g><path style="opacity:0.968" fill="#fdfdfd" d="M 582.5,38.5 C 613.55,38.3834 629.217,53.8834 629.5,85C 626.449,122.866 606.449,137.199 569.5,128C 552.196,119.076 544.196,104.742 545.5,85C 544.492,58.5391 556.825,43.0391 582.5,38.5 Z M 584.5,54.5 C 597.688,53.8301 605.855,59.8301 609,72.5C 611.749,85.1855 610.082,97.1855 604,108.5C 595.659,115.14 586.492,116.64 576.5,113C 567.092,106.141 563.092,96.8077 564.5,85C 563.309,74.2322 566.642,65.2322 574.5,58C 577.85,56.5137 581.184,55.347 584.5,54.5 Z"/></g>
<g><path style="opacity:0.958" fill="#fdfdfd" d="M 836.5,38.5 C 849.834,37.4081 861.167,41.4081 870.5,50.5C 867.514,54.817 864.18,58.817 860.5,62.5C 852.002,55.1257 842.336,52.959 831.5,56C 823.847,60.7822 823.514,66.1155 830.5,72C 838.43,74.2529 846.43,76.2529 854.5,78C 870.098,83.3544 876.265,94.1877 873,110.5C 870.721,118.446 865.888,124.279 858.5,128C 842.425,133.14 827.092,131.473 812.5,123C 809.6,120.603 807.267,117.77 805.5,114.5C 808.317,109.838 811.817,105.838 816,102.5C 818.806,105.634 821.972,108.467 825.5,111C 832.795,115.128 840.461,116.128 848.5,114C 855.996,109.198 856.996,103.365 851.5,96.5C 840.782,93.1885 830.115,89.6885 819.5,86C 806.22,75.5197 804.054,63.0197 813,48.5C 819.79,42.5205 827.623,39.1872 836.5,38.5 Z"/></g>
<g><path style="opacity:0.964" fill="#fdfdfd" d="M 1020.5,38.5 C 1051.29,38.2902 1066.96,53.6235 1067.5,84.5C 1067.96,113.32 1053.96,128.986 1025.5,131.5C 997.069,129.229 983.069,113.729 983.5,85C 982.947,58.825 995.281,43.325 1020.5,38.5 Z M 1022.5,54.5 C 1035.14,53.8896 1043.3,59.5562 1047,71.5C 1049.9,84.0198 1048.57,96.0198 1043,107.5C 1031.38,117.971 1019.71,117.971 1008,107.5C 1001.49,93.8564 1000.83,79.8564 1006,65.5C 1009.99,59.4321 1015.49,55.7654 1022.5,54.5 Z"/></g>
<g><path style="opacity:0.983" fill="#fefefe" d="M 267.5,39.5 C 273.409,40.4553 279.409,40.7886 285.5,40.5C 285.082,61.8689 285.582,83.2022 287,104.5C 290.455,111.817 296.288,115.484 304.5,115.5C 313.265,115.55 319.098,111.55 322,103.5C 323.416,82.5357 323.916,61.5357 323.5,40.5C 329.5,40.5 335.5,40.5 341.5,40.5C 341.667,59.5029 341.5,78.5029 341,97.5C 341.287,110.375 336.12,120.208 325.5,127C 310.706,132.971 296.039,132.638 281.5,126C 272.069,118.967 267.569,109.467 268,97.5C 267.5,78.1695 267.333,58.8362 267.5,39.5 Z"/></g>
<g><path style="opacity:0.99" fill="#fefefe" d="M 363.5,39.5 C 369.409,40.4553 375.409,40.7886 381.5,40.5C 381.5,70.1667 381.5,99.8333 381.5,129.5C 375.5,129.5 369.5,129.5 363.5,129.5C 363.5,99.5 363.5,69.5 363.5,39.5 Z"/></g>
<g><path style="opacity:0.973" fill="#fdfdfd" d="M 424.5,39.5 C 430.448,40.1273 436.448,40.794 442.5,41.5C 446.917,61.2567 451.584,80.9234 456.5,100.5C 462.773,80.412 468.273,60.0786 473,39.5C 478.083,40.3071 483.25,40.8071 488.5,41C 494.071,61.45 499.571,81.95 505,102.5C 510.134,82.295 514.801,61.9617 519,41.5C 524.741,40.5251 530.575,40.1918 536.5,40.5C 530.194,69.5271 523.694,98.5271 517,127.5C 510.115,129.441 502.948,130.108 495.5,129.5C 490.846,110.371 485.68,91.3707 480,72.5C 474.694,91.3914 469.861,110.391 465.5,129.5C 458.5,129.5 451.5,129.5 444.5,129.5C 437.705,99.5271 431.039,69.5271 424.5,39.5 Z"/></g>
<g><path style="opacity:0.958" fill="#fefefe" d="M 730.5,39.5 C 736.744,40.4578 743.077,40.7912 749.5,40.5C 749.333,52.5046 749.5,64.5046 750,76.5C 760.379,64.4564 770.379,52.1231 780,39.5C 786.076,40.4764 792.242,40.8097 798.5,40.5C 798.649,41.552 798.483,42.552 798,43.5C 786.931,56.0659 776.431,69.0659 766.5,82.5C 778.118,98.12 790.118,113.453 802.5,128.5C 795.524,129.664 788.524,129.831 781.5,129C 771,116.5 760.5,104 750,91.5C 749.5,104.162 749.333,116.829 749.5,129.5C 743.167,129.5 736.833,129.5 730.5,129.5C 730.5,99.5 730.5,69.5 730.5,39.5 Z"/></g>
<g><path style="opacity:0.974" fill="#fdfdfd" d="M 947.5,39.5 C 953.409,40.4553 959.409,40.7886 965.5,40.5C 965.5,70.1667 965.5,99.8333 965.5,129.5C 959.5,129.5 953.5,129.5 947.5,129.5C 947.5,116.167 947.5,102.833 947.5,89.5C 934.5,89.5 921.5,89.5 908.5,89.5C 908.5,102.833 908.5,116.167 908.5,129.5C 902.167,129.5 895.833,129.5 889.5,129.5C 889.5,99.8333 889.5,70.1667 889.5,40.5C 895.833,40.5 902.167,40.5 908.5,40.5C 908.5,51.5 908.5,62.5 908.5,73.5C 921.5,73.5 934.5,73.5 947.5,73.5C 947.5,62.1667 947.5,50.8333 947.5,39.5 Z"/></g>
<g><path style="opacity:0.98" fill="#fefefe" d="M 647.5,40.5 C 662.504,40.3334 677.504,40.5001 692.5,41C 707.606,45.0174 713.773,54.8507 711,70.5C 708.526,78.3072 703.359,83.4739 695.5,86C 699.392,89.2258 702.558,93.0591 705,97.5C 708.513,107.853 712.013,118.186 715.5,128.5C 709.202,129.496 702.868,129.83 696.5,129.5C 693.555,118.164 689.722,107.164 685,96.5C 683.2,94.683 681.034,93.5163 678.5,93C 674.179,92.501 669.846,92.3343 665.5,92.5C 665.5,104.833 665.5,117.167 665.5,129.5C 659.5,129.5 653.5,129.5 647.5,129.5C 647.5,99.8333 647.5,70.1667 647.5,40.5 Z M 665.5,54.5 C 671.509,54.3338 677.509,54.5005 683.5,55C 690.19,55.8664 693.524,59.6998 693.5,66.5C 693.183,74.1609 689.183,77.9943 681.5,78C 676.5,78.6667 671.5,78.6667 666.5,78C 665.518,70.253 665.185,62.4197 665.5,54.5 Z"/></g>
<g><path style="opacity:0.982" fill="#fdfdfd" d="M 1085.5,40.5 C 1100.17,40.3334 1114.84,40.5001 1129.5,41C 1145.74,46.2662 1152.57,57.4329 1150,74.5C 1147.42,86.7468 1139.92,93.9135 1127.5,96C 1119.51,96.4997 1111.51,96.6664 1103.5,96.5C 1103.5,107.5 1103.5,118.5 1103.5,129.5C 1097.5,129.5 1091.5,129.5 1085.5,129.5C 1085.5,99.8333 1085.5,70.1667 1085.5,40.5 Z M 1103.5,54.5 C 1110.59,54.1156 1117.59,54.6156 1124.5,56C 1129.79,58.4016 1132.12,62.5683 1131.5,68.5C 1132.16,74.3538 1129.82,78.5204 1124.5,81C 1117.51,81.4996 1110.51,81.6663 1103.5,81.5C 1103.5,72.5 1103.5,63.5 1103.5,54.5 Z"/></g>
<g><path style="opacity:1" fill="#55a5f9" d="M 105.5,27.5 C 104.499,28.7887 104.666,30.1221 106,31.5C 112.408,37.7384 117.574,44.2384 121.5,51C 122.448,51.4828 123.448,51.6495 124.5,51.5C 132.291,59.1341 138.791,67.8008 144,77.5C 144.977,79.74 145.477,82.0733 145.5,84.5C 143.697,80.8941 141.864,77.2274 140,73.5C 138.89,71.7571 137.39,70.4238 135.5,69.5C 134.846,67.8849 134.346,66.2182 134,64.5C 131.943,63.0418 129.777,62.2085 127.5,62C 125.845,60.5557 125.178,58.7224 125.5,56.5C 124.127,56.3433 122.793,56.51 121.5,57C 121.836,58.629 121.17,60.129 119.5,61.5C 113.219,54.9801 107.386,47.9801 102,40.5C 92.2141,48.6543 88.3807,58.9876 90.5,71.5C 89.5028,71.5299 88.8361,71.0299 88.5,70C 86.9384,58.7859 89.7717,48.6192 97,39.5C 97.7975,37.7412 97.6309,36.0745 96.5,34.5C 90.6114,39.5965 84.6114,45.2632 78.5,51.5C 84.6563,42.1891 91.6563,33.6891 99.5,26C 98.3463,25.0862 98.513,24.2529 100,23.5C 102.463,24.0322 104.297,25.3655 105.5,27.5 Z"/></g>
<g><path style="opacity:1" fill="#4ea0fd" d="M 90.5,71.5 C 91.1667,71.5 91.5,71.8333 91.5,72.5C 89.4973,73.7526 89.4973,75.4192 91.5,77.5C 90.8333,78.5 90.1667,79.5 89.5,80.5C 91.162,81.3267 92.4954,82.4933 93.5,84C 98.5238,83.0384 99.5238,84.7051 96.5,89C 96.9574,89.414 97.2907,89.914 97.5,90.5C 95.7086,91.1698 94.0419,91.8365 92.5,92.5C 91.6618,92.1583 91.3284,91.4916 91.5,90.5C 87.1188,86.602 83.6188,81.9353 81,76.5C 81.3966,73.9677 82.23,71.4677 83.5,69C 83.1667,67.8333 82.8333,66.6667 82.5,65.5C 81.8333,66.8333 81.1667,68.1667 80.5,69.5C 78.2516,65.5397 75.9183,65.5397 73.5,69.5C 70.47,72.5592 68.8033,76.2258 68.5,80.5C 67.448,80.6495 66.448,80.4828 65.5,80C 64.4348,78.3708 63.1014,77.2042 61.5,76.5C 62.2453,71.4064 64.5786,70.4064 68.5,73.5C 68.8333,73.1667 69.1667,72.8333 69.5,72.5C 68.2479,70.2646 67.7479,67.9313 68,65.5C 70.6667,61.5 74,58.1667 78,55.5C 78.49,54.2068 78.6567,52.8734 78.5,51.5C 84.6114,45.2632 90.6114,39.5965 96.5,34.5C 97.6309,36.0745 97.7975,37.7412 97,39.5C 89.7717,48.6192 86.9384,58.7859 88.5,70C 88.8361,71.0299 89.5028,71.5299 90.5,71.5 Z"/></g>
<g><path style="opacity:1" fill="#57a6f6" d="M 78.5,51.5 C 78.6567,52.8734 78.49,54.2068 78,55.5C 74,58.1667 70.6667,61.5 68,65.5C 67.7479,67.9313 68.2479,70.2646 69.5,72.5C 69.1667,72.8333 68.8333,73.1667 68.5,73.5C 64.5786,70.4064 62.2453,71.4064 61.5,76.5C 63.1014,77.2042 64.4348,78.3708 65.5,80C 66.448,80.4828 67.448,80.6495 68.5,80.5C 68.8033,76.2258 70.47,72.5592 73.5,69.5C 75.9183,65.5397 78.2516,65.5397 80.5,69.5C 81.1667,68.1667 81.8333,66.8333 82.5,65.5C 82.8333,66.6667 83.1667,67.8333 83.5,69C 82.23,71.4677 81.3966,73.9677 81,76.5C 83.6188,81.9353 87.1188,86.602 91.5,90.5C 87.6381,89.4763 84.8048,87.1429 83,83.5C 80.0219,79.2369 78.0219,74.9035 77,70.5C 68.5246,80.7476 66.1913,92.4143 70,105.5C 71.2587,108.356 72.7587,111.023 74.5,113.5C 73.325,113.719 72.325,113.386 71.5,112.5C 69.6999,108.871 67.6999,105.371 65.5,102C 66.0585,101.275 66.3918,100.442 66.5,99.5C 65.8863,93.4666 65.0529,87.4666 64,81.5C 63.0805,81.9302 62.2472,82.2635 61.5,82.5C 61.4793,84.6016 61.8126,86.7683 62.5,89C 61.7511,90.7337 61.2511,92.567 61,94.5C 58.4134,90.9053 57.9134,91.572 59.5,96.5C 59.4047,98.8691 58.4047,100.536 56.5,101.5C 54.6615,88.1879 57.8281,76.1879 66,65.5C 70.0321,60.6389 74.1988,55.9723 78.5,51.5 Z"/></g>
<g><path style="opacity:1" fill="#59a6f7" d="M 91.5,72.5 C 92.6294,75.9176 94.6294,78.751 97.5,81C 103.167,84.6667 108.833,88.3333 114.5,92C 117.447,94.4356 119.78,97.2689 121.5,100.5C 118.143,97.1451 114.476,94.1451 110.5,91.5C 109.522,91.9767 108.689,92.6433 108,93.5C 107.692,92.6919 107.192,92.0253 106.5,91.5C 105.167,91.8333 103.833,92.1667 102.5,92.5C 103.833,93.1667 105.167,93.8333 106.5,94.5C 105.624,95.2508 104.624,95.7508 103.5,96C 105.107,97.049 105.773,98.549 105.5,100.5C 101.293,97.5664 96.9598,94.8997 92.5,92.5C 94.0419,91.8365 95.7086,91.1698 97.5,90.5C 97.2907,89.914 96.9574,89.414 96.5,89C 99.5238,84.7051 98.5238,83.0384 93.5,84C 92.4954,82.4933 91.162,81.3267 89.5,80.5C 90.1667,79.5 90.8333,78.5 91.5,77.5C 89.4973,75.4192 89.4973,73.7526 91.5,72.5 Z"/></g>
<g><path style="opacity:1" fill="#50a1fb" d="M 145.5,84.5 C 148.457,98.0492 145.79,110.383 137.5,121.5C 136.328,120.295 134.995,120.295 133.5,121.5C 132.646,122.522 131.646,123.355 130.5,124C 130.833,124.333 131.167,124.667 131.5,125C 127.745,126.588 124.745,129.088 122.5,132.5C 118.901,133.878 115.235,135.044 111.5,136C 104.35,135.958 97.8498,136.125 92,136.5C 87.975,135.383 84.1417,133.883 80.5,132C 80.8333,131.667 81.1667,131.333 81.5,131C 79.8659,130.506 78.1992,130.34 76.5,130.5C 68.6356,125.459 62.6356,118.625 58.5,110C 59.4581,108.853 59.1247,107.853 57.5,107C 57.8333,106.667 58.1667,106.333 58.5,106C 56.9632,104.89 56.2965,103.39 56.5,101.5C 58.4047,100.536 59.4047,98.8691 59.5,96.5C 57.9134,91.572 58.4134,90.9053 61,94.5C 61.2511,92.567 61.7511,90.7337 62.5,89C 61.8126,86.7683 61.4793,84.6016 61.5,82.5C 62.2472,82.2635 63.0805,81.9302 64,81.5C 65.0529,87.4666 65.8863,93.4666 66.5,99.5C 66.3918,100.442 66.0585,101.275 65.5,102C 67.6999,105.371 69.6999,108.871 71.5,112.5C 72.325,113.386 73.325,113.719 74.5,113.5C 85.7437,126.228 99.4104,129.728 115.5,124C 115.978,120.139 115.978,116.473 115.5,113C 112.713,108.381 109.38,104.215 105.5,100.5C 105.773,98.549 105.107,97.049 103.5,96C 104.624,95.7508 105.624,95.2508 106.5,94.5C 105.167,93.8333 103.833,93.1667 102.5,92.5C 103.833,92.1667 105.167,91.8333 106.5,91.5C 107.192,92.0253 107.692,92.6919 108,93.5C 108.689,92.6433 109.522,91.9767 110.5,91.5C 114.476,94.1451 118.143,97.1451 121.5,100.5C 122.885,101.574 124.051,102.907 125,104.5C 126.076,107.648 127.409,110.648 129,113.5C 130.626,111.083 132.126,108.583 133.5,106C 133.167,105.667 132.833,105.333 132.5,105C 133.206,103.09 134.206,101.09 135.5,99C 135.588,90.3318 133.588,82.1651 129.5,74.5C 126.088,70.1053 122.754,65.772 119.5,61.5C 121.17,60.129 121.836,58.629 121.5,57C 122.793,56.51 124.127,56.3433 125.5,56.5C 125.178,58.7224 125.845,60.5557 127.5,62C 129.777,62.2085 131.943,63.0418 134,64.5C 134.346,66.2182 134.846,67.8849 135.5,69.5C 137.39,70.4238 138.89,71.7571 140,73.5C 141.864,77.2274 143.697,80.8941 145.5,84.5 Z"/></g>
<g><path style="opacity:0.804" fill="#6ab3f3" d="M 137.5,121.5 C 126.488,134.219 112.655,140.219 96,139.5C 90.7852,137.872 85.6186,136.039 80.5,134C 78.6813,133.26 77.3479,132.093 76.5,130.5C 78.1992,130.34 79.8659,130.506 81.5,131C 81.1667,131.333 80.8333,131.667 80.5,132C 84.1417,133.883 87.975,135.383 92,136.5C 97.8498,136.125 104.35,135.958 111.5,136C 115.235,135.044 118.901,133.878 122.5,132.5C 124.745,129.088 127.745,126.588 131.5,125C 131.167,124.667 130.833,124.333 130.5,124C 131.646,123.355 132.646,122.522 133.5,121.5C 134.995,120.295 136.328,120.295 137.5,121.5 Z"/></g>
</svg>
