<?xml version="1.0" encoding="UTF-8"?>
<!DOCTYPE svg PUBLIC "-//W3C//DTD SVG 1.1//EN" "http://www.w3.org/Graphics/SVG/1.1/DTD/svg11.dtd">
<svg xmlns="http://www.w3.org/2000/svg" version="1.1" width="1148px" height="156px" style="shape-rendering:geometricPrecision; text-rendering:geometricPrecision; image-rendering:optimizeQuality; fill-rule:evenodd; clip-rule:evenodd" xmlns:xlink="http://www.w3.org/1999/xlink">
<g><path style="opacity:0.932" fill="#000000" d="M 186.5,36.5 C 197.096,36.0357 207.096,38.2024 216.5,43C 218.351,44.6837 220.018,46.5171 221.5,48.5C 218.638,52.1954 215.972,56.0287 213.5,60C 210.404,60.9267 208.07,59.9267 206.5,57C 198.098,52.1974 189.431,51.5307 180.5,55C 175.33,60.6794 175.996,65.6794 182.5,70C 190.43,72.2529 198.43,74.2529 206.5,76C 221.935,81.8824 227.768,93.049 224,109.5C 219.906,121.643 211.406,128.143 198.5,129C 186.417,130.241 175.083,127.907 164.5,122C 160.788,119.289 157.788,115.956 155.5,112C 158.732,107.604 162.399,103.771 166.5,100.5C 170.284,103.109 173.951,105.943 177.5,109C 185.355,113.274 193.355,113.94 201.5,111C 206.773,105.261 206.773,99.5947 201.5,94C 193.311,91.2024 184.978,88.8691 176.5,87C 158.535,78.5577 154.035,65.391 163,47.5C 169.614,41.0272 177.448,37.3605 186.5,36.5 Z"/></g>
<g><path style="opacity:0.937" fill="#000000" d="M 552.5,36.5 C 584.572,35.4051 600.905,50.9051 601.5,83C 601.06,114.776 585.06,130.109 553.5,129C 535.124,126.625 523.624,116.458 519,98.5C 515.509,82.403 517.509,67.0697 525,52.5C 532.05,43.396 541.217,38.0627 552.5,36.5 Z M 557.5,52.5 C 570.329,52.8417 578.162,59.1751 581,71.5C 582.837,81.6407 582.171,91.6407 579,101.5C 572.846,111.446 564.013,114.946 552.5,112C 542.897,108.668 537.731,101.834 537,91.5C 535.779,81.9128 536.779,72.5794 540,63.5C 544.235,57.1401 550.069,53.4735 557.5,52.5 Z"/></g>
<g><path style="opacity:0.933" fill="#000000" d="M 807.5,36.5 C 818.096,36.0357 828.096,38.2024 837.5,43C 839.351,44.6837 841.018,46.5171 842.5,48.5C 839.638,52.1954 836.972,56.0287 834.5,60C 831.404,60.9267 829.07,59.9267 827.5,57C 819.098,52.1974 810.431,51.5307 801.5,55C 796.33,60.6794 796.996,65.6794 803.5,70C 811.43,72.2529 819.43,74.2529 827.5,76C 842.935,81.8824 848.768,93.049 845,109.5C 840.906,121.643 832.406,128.143 819.5,129C 807.417,130.241 796.083,127.907 785.5,122C 781.788,119.289 778.788,115.956 776.5,112C 779.732,107.604 783.399,103.771 787.5,100.5C 791.284,103.109 794.951,105.943 798.5,109C 806.355,113.274 814.355,113.94 822.5,111C 827.773,105.261 827.773,99.5947 822.5,94C 814.311,91.2024 805.978,88.8691 797.5,87C 779.535,78.5577 775.035,65.391 784,47.5C 790.614,41.0272 798.448,37.3605 807.5,36.5 Z"/></g>
<g><path style="opacity:0.94" fill="#000000" d="M 990.5,36.5 C 1015.01,33.8883 1030.85,44.2216 1038,67.5C 1041.62,84.1387 1039.29,99.8053 1031,114.5C 1018.53,127.654 1003.36,132.154 985.5,128C 969.786,123.62 960.286,113.453 957,97.5C 954.162,83.3994 955.495,69.7327 961,56.5C 967.789,45.1903 977.622,38.5236 990.5,36.5 Z M 996.5,52.5 C 1011.06,53.2277 1018.89,60.8943 1020,75.5C 1021.94,87.4565 1019.44,98.2898 1012.5,108C 1002.5,114 992.5,114 982.5,108C 975.788,98.5995 973.288,88.0995 975,76.5C 975.561,62.2794 982.727,54.2794 996.5,52.5 Z"/></g>
<g><path style="opacity:0.912" fill="#000000" d="M 239.5,37.5 C 245.758,37.1903 251.924,37.5236 258,38.5C 258.333,59.5 258.667,80.5 259,101.5C 261.831,109.837 267.665,113.504 276.5,112.5C 285.059,113.098 290.892,109.432 294,101.5C 294.333,80.5 294.667,59.5 295,38.5C 301.076,37.5236 307.242,37.1903 313.5,37.5C 313.667,57.5028 313.5,77.5028 313,97.5C 311.051,119.588 298.885,130.255 276.5,129.5C 254.115,130.255 241.949,119.588 240,97.5C 239.5,77.5028 239.333,57.5028 239.5,37.5 Z"/></g>
<g><path style="opacity:0.971" fill="#000000" d="M 335.5,37.5 C 341.5,37.5 347.5,37.5 353.5,37.5C 353.5,67.5 353.5,97.5 353.5,127.5C 347.5,127.5 341.5,127.5 335.5,127.5C 335.5,97.5 335.5,67.5 335.5,37.5 Z"/></g>
<g><path style="opacity:0.941" fill="#000000" d="M 396.5,37.5 C 402.537,37.1707 408.537,37.5041 414.5,38.5C 419.034,59.2991 423.867,79.9657 429,100.5C 434.326,79.5278 439.493,58.5278 444.5,37.5C 449.875,37.1718 455.208,37.5052 460.5,38.5C 466.31,59.0742 471.81,79.7409 477,100.5C 482.173,79.9696 486.84,59.303 491,38.5C 496.741,37.5251 502.575,37.1918 508.5,37.5C 502.481,67.2473 495.981,96.914 489,126.5C 481.921,127.48 474.755,127.813 467.5,127.5C 462.802,108.376 457.636,89.3763 452,70.5C 447.165,89.1723 442.332,107.839 437.5,126.5C 430.5,127.833 423.5,127.833 416.5,126.5C 409.357,96.9308 402.691,67.2641 396.5,37.5 Z"/></g>
<g><path style="opacity:0.955" fill="#000000" d="M 619.5,37.5 C 634.869,37.1412 650.203,37.6412 665.5,39C 674.921,40.7556 680.754,46.2556 683,55.5C 685.777,69.4539 680.61,78.9539 667.5,84C 671,86.1667 673.833,89 676,92.5C 680.34,104.018 684.173,115.685 687.5,127.5C 681.132,127.83 674.798,127.496 668.5,126.5C 665.359,115.578 661.526,104.911 657,94.5C 651.035,91.0531 644.535,89.7198 637.5,90.5C 637.5,102.833 637.5,115.167 637.5,127.5C 631.5,127.5 625.5,127.5 619.5,127.5C 619.5,97.5 619.5,67.5 619.5,37.5 Z M 637.5,52.5 C 644.896,52.1997 652.229,52.6997 659.5,54C 665.245,58.2459 666.745,63.7459 664,70.5C 662.773,72.7261 660.939,74.2261 658.5,75C 651.508,75.4996 644.508,75.6663 637.5,75.5C 637.5,67.8333 637.5,60.1667 637.5,52.5 Z"/></g>
<g><path style="opacity:0.925" fill="#000000" d="M 702.5,37.5 C 708.833,37.5 715.167,37.5 721.5,37.5C 721.333,49.8378 721.5,62.1712 722,74.5C 732.022,62.6453 741.856,50.6453 751.5,38.5C 757.798,37.5037 764.132,37.1703 770.5,37.5C 770.657,38.8734 770.49,40.2068 770,41.5C 759.69,54.6447 749.19,67.6447 738.5,80.5C 750.882,95.5467 762.882,110.88 774.5,126.5C 767.189,127.665 759.856,127.831 752.5,127C 742.712,114.21 732.545,101.71 722,89.5C 721.5,102.162 721.333,114.829 721.5,127.5C 715.167,127.5 708.833,127.5 702.5,127.5C 702.5,97.5 702.5,67.5 702.5,37.5 Z"/></g>
<g><path style="opacity:0.948" fill="#000000" d="M 861.5,37.5 C 867.833,37.5 874.167,37.5 880.5,37.5C 880.5,48.8333 880.5,60.1667 880.5,71.5C 893.5,71.5 906.5,71.5 919.5,71.5C 919.5,60.1667 919.5,48.8333 919.5,37.5C 925.5,37.5 931.5,37.5 937.5,37.5C 937.5,67.5 937.5,97.5 937.5,127.5C 931.5,127.5 925.5,127.5 919.5,127.5C 919.5,114.167 919.5,100.833 919.5,87.5C 906.5,87.5 893.5,87.5 880.5,87.5C 880.5,100.833 880.5,114.167 880.5,127.5C 874.167,127.5 867.833,127.5 861.5,127.5C 861.5,97.5 861.5,67.5 861.5,37.5 Z"/></g>
<g><path style="opacity:0.956" fill="#000000" d="M 1057.5,37.5 C 1072.54,37.1451 1087.54,37.6451 1102.5,39C 1115.86,43.2034 1122.52,52.3701 1122.5,66.5C 1122.38,81.4535 1115.04,90.6202 1100.5,94C 1092.17,94.4997 1083.84,94.6664 1075.5,94.5C 1075.5,105.5 1075.5,116.5 1075.5,127.5C 1069.5,127.5 1063.5,127.5 1057.5,127.5C 1057.5,97.5 1057.5,67.5 1057.5,37.5 Z M 1075.5,52.5 C 1082.56,52.2122 1089.56,52.7122 1096.5,54C 1101.82,56.4796 1104.16,60.6462 1103.5,66.5C 1104.24,72.8502 1101.58,77.0169 1095.5,79C 1088.84,79.4996 1082.17,79.6663 1075.5,79.5C 1075.5,70.5 1075.5,61.5 1075.5,52.5 Z"/></g>
<g><path style="opacity:1" fill="#55a1f9" d="M 72.5,21.5 C 74.0898,21.6282 75.4231,22.2949 76.5,23.5C 88.1889,37.3546 99.6889,51.3546 111,65.5C 123.491,86.1009 121.991,105.601 106.5,124C 87.7267,140.007 67.7267,141.674 46.5,129C 26.7685,111.442 22.9352,90.9417 35,67.5C 47.7126,52.2927 60.2126,36.9594 72.5,21.5 Z M 72.5,39.5 C 74.371,39.8588 75.871,40.8588 77,42.5C 83.3333,50.1667 89.6667,57.8333 96,65.5C 107.99,79.3342 109.656,94.3342 101,110.5C 95.251,97.0836 85.751,87.2503 72.5,81C 61.7163,72.4611 59.2163,61.9611 65,49.5C 67.7167,46.2896 70.2167,42.9563 72.5,39.5 Z M 48.5,68.5 C 50.5107,74.1839 53.344,79.5172 57,84.5C 65.847,90.9245 74.5137,97.5912 83,104.5C 86.8564,109.642 88.3564,115.309 87.5,121.5C 64.6237,128.645 49.1237,120.978 41,98.5C 39.1276,87.3227 41.6276,77.3227 48.5,68.5 Z"/></g>
</svg>
